#!OML:ASF Y:\EmotionMaleHayes\Project 1\Capture day 1\Session 1\Male1.ASF
:FULLY-SPECIFIED
:DEGREES
69
root -30.1876 16.9575 1.42355 -6.67155 86.2199 -2.15191
lowerback 5.44762 0.859535 -0.852389
upperback 7.03659 1.34722 0.387271
thorax 4.19487 0.722088 0.86149
lowerneck -23.4078 2.38321 3.78428
upperneck 29.0129 2.66376 -1.0103
head 13.8548 1.56085 -0.520306
rclavicle 1.2101e-014 -3.97569e-016
rhumerus -25.5453 17.4176 -94.0616
rradius 28.6648
rwrist 3.65032
rhand -10.0921 -33.1703
rfingers 7.12502
rthumb 15.8949 -62.538
lclavicle 1.2101e-014 -3.97569e-016
lhumerus -21.1417 -9.2303 92.0834
lradius 20.8244
lwrist -13.6064
lhand -19.4523 -25.0671
lfingers 7.12502
lthumb 6.86853 4.80148
rfemur 9.93407 -2.67445 14.7581
rtibia 5.51934
rfoot -14.5444 1.76926
rtoes 7.39178
lfemur 6.82136 1.98663 -11.557
ltibia 13.9502
lfoot -16.7761 10.6796
ltoes -19.5382
70
root -30.1893 16.9587 1.42314 -4.6946 86.1805 -0.183911
lowerback 5.42487 0.862513 -1.02423
upperback 7.04477 1.34834 0.359535
thorax 4.21366 0.715218 0.929497
lowerneck -23.4355 2.43028 3.83015
upperneck 29.0043 2.7072 -0.999146
head 13.859 1.58557 -0.515315
rclavicle 5.91384e-015 5.51627e-015
rhumerus -25.5093 17.4805 -94.054
rradius 28.6536
rwrist 3.5688
rhand -10.0864 -33.0638
rfingers 7.12502
rthumb 15.9004 -62.4311
lclavicle 5.91384e-015 5.51627e-015
lhumerus -21.1153 -9.1263 92.0495
lradius 20.8257
lwrist -13.6054
lhand -19.0231 -25.1187
lfingers 7.12502
lthumb 7.28287 4.73598
rfemur 9.89183 -2.56235 14.6394
rtibia 5.53056
rfoot -14.5811 1.81513
rtoes 7.96459
lfemur 6.84177 1.79811 -11.7981
ltibia 13.8824
lfoot -16.7687 10.8585
ltoes -19.1847
71
root -30.1899 16.9591 1.42275 -2.88747 86.1438 1.60289
lowerback 5.39108 0.863441 -1.18425
upperback 7.03592 1.34563 0.34698
thorax 4.22067 0.706249 1.00659
lowerneck -23.436 2.44361 3.82515
upperneck 29 2.73818 -1.02911
head 13.8586 1.59378 -0.520717
rclavicle -5.46658e-015 -1.63997e-015
rhumerus -25.5228 17.4815 -94.0335
rradius 28.6619
rwrist 3.64841
rhand -10.1277 -32.968
rfingers 7.12502
rthumb 15.8606 -62.3384
lclavicle -5.46658e-015 -1.63997e-015
lhumerus -21.1267 -9.0005 92.0428
lradius 20.8292
lwrist -13.6641
lhand -18.53 -25.1522
lfingers 7.12502
lthumb 7.75882 4.6854
rfemur 9.83292 -2.58278 14.4798
rtibia 5.58642
rfoot -14.5626 1.83086
rtoes 7.05346
lfemur 6.72947 2.02039 -11.8718
ltibia 14.0657
lfoot -16.8064 10.7141
ltoes -19.0932
72
root -30.1909 16.9577 1.42248 -1.52383 86.1641 2.93959
lowerback 5.38106 0.864724 -1.2879
upperback 7.00133 1.34352 0.327114
thorax 4.18841 0.700466 1.04368
lowerneck -23.4022 2.43616 3.8212
upperneck 29.0098 2.73917 -1.04972
head 13.8559 1.59156 -0.528323
rclavicle 4.68386e-015 -9.44227e-016
rhumerus -25.6101 17.361 -94.0175
rradius 28.7079
rwrist 3.80469
rhand -10.148 -32.8706
rfingers 7.12502
rthumb 15.8412 -62.2426
lclavicle 4.68386e-015 -9.44227e-016
lhumerus -21.1813 -8.91408 92.0433
lradius 20.8258
lwrist -13.7815
lhand -18.8686 -25.122
lfingers 7.12502
lthumb 7.43202 4.72747
rfemur 9.78733 -2.62375 14.3598
rtibia 5.6398
rfoot -14.5199 1.7714
rtoes 6.1232
lfemur 6.61417 2.22389 -11.9116
ltibia 14.2179
lfoot -16.7555 10.5325
ltoes -19.0672
73
root -30.1904 16.957 1.42131 -2.48956 86.1875 1.97917
lowerback 5.37406 0.855598 -1.20742
upperback 7.00601 1.33342 0.330622
thorax 4.19889 0.699055 1.0027
lowerneck -23.4302 2.42506 3.79843
upperneck 29.011 2.71164 -0.995273
head 13.8602 1.58464 -0.50759
rclavicle 8.85834e-015 1.49089e-015
rhumerus -25.6252 17.3969 -94.0346
rradius 28.7359
rwrist 3.79641
rhand -10.1721 -32.7856
rfingers 7.12502
rthumb 15.8179 -62.1593
lclavicle 8.85834e-015 1.49089e-015
lhumerus -21.1643 -8.88099 92.0347
lradius 20.7981
lwrist -13.7859
lhand -19.3698 -25.1812
lfingers 7.12502
lthumb 6.94817 4.68479
rfemur 9.82329 -2.49196 14.4946
rtibia 5.57156
rfoot -14.4691 1.65137
rtoes 6.94135
lfemur 6.68665 1.99273 -11.9345
ltibia 14.0789
lfoot -16.6687 10.6565
ltoes -18.7929
